<?xml version="1.0" standalone="no"?>
<!DOCTYPE svg PUBLIC "-//W3C//DTD SVG 20010904//EN"
 "http://www.w3.org/TR/2001/REC-SVG-20010904/DTD/svg10.dtd">
<svg version="1.0" xmlns="http://www.w3.org/2000/svg"
 width="1088.000000pt" height="1088.000000pt" viewBox="0 0 1088.000000 1088.000000"
 preserveAspectRatio="xMidYMid meet">
<metadata>
Created by potrace 1.14, written by Peter Selinger 2001-2017
</metadata>
<g transform="translate(0.000000,1088.000000) scale(0.100000,-0.100000)"
fill="#000000" stroke="none">
<path d="M5140 10861 c-115 -25 -271 -87 -292 -116 -4 -5 -8 -7 -8 -2 0 12
-134 -89 -178 -135 -72 -75 -112 -122 -112 -129 0 -4 -7 -14 -15 -22 -43 -44
-116 -222 -151 -372 -4 -16 -9 -662 -10 -1434 -2 -771 -4 -1405 -6 -1406 -5
-5 -67 -6 -588 -6 -560 -1 -562 0 -574 11 -5 5 -10 575 -11 1382 -1 755 -5
1383 -8 1395 -3 11 -9 42 -12 67 -4 26 -11 49 -16 52 -5 3 -9 15 -9 28 0 13
-6 36 -14 52 -8 16 -22 47 -32 69 -23 53 -93 160 -135 209 -65 75 -195 186
-218 186 -5 0 -11 4 -13 8 -4 12 -146 79 -183 88 -16 4 -34 10 -40 14 -9 6
-40 14 -110 25 -84 14 -101 17 -110 17 -57 0 -227 -12 -233 -16 -5 -3 -24 -8
-43 -11 -45 -8 -148 -44 -176 -61 -13 -8 -23 -12 -23 -9 0 8 -132 -75 -180
-114 -71 -57 -145 -138 -201 -218 -27 -40 -47 -73 -43 -73 4 0 0 -8 -9 -17 -8
-10 -16 -22 -17 -28 -1 -5 -9 -26 -17 -45 -16 -38 -43 -123 -49 -155 -2 -11
-8 -42 -13 -70 -6 -31 -10 -760 -11 -1936 0 -1658 2 -1896 15 -1975 43 -247
178 -463 380 -609 59 -42 189 -115 205 -115 5 0 21 -5 37 -12 33 -13 30 -12
113 -34 60 -16 157 -18 1202 -18 l1138 -1 0 -25 c1 -14 2 -1026 4 -2250 2
-1224 6 -2238 10 -2255 10 -50 13 -59 19 -75 3 -8 11 -35 17 -60 31 -120 139
-289 252 -395 95 -89 150 -127 258 -177 136 -63 228 -82 400 -82 135 -1 184 6
288 39 85 27 238 101 268 129 7 6 29 25 50 43 60 48 76 64 132 129 29 33 52
66 52 72 0 7 5 12 10 12 6 0 10 7 10 15 0 8 3 15 8 15 4 0 17 21 29 48 32 68
73 162 72 165 -1 1 4 20 9 42 11 39 21 100 27 160 2 17 4 1025 4 2240 l1 2210
1228 1 c675 0 1247 4 1272 8 56 10 74 14 78 16 1 2 5 3 10 4 4 1 23 6 42 10
47 11 153 57 162 71 4 5 8 6 8 2 0 -5 13 1 29 12 16 12 32 21 35 21 4 0 19 11
34 25 15 14 30 25 34 25 14 0 130 115 172 170 64 84 100 147 138 245 70 179
66 53 66 2156 0 1234 -3 1912 -10 1940 -5 24 -12 55 -14 69 -17 96 -83 239
-159 345 -48 67 -122 145 -138 145 -6 0 -8 3 -4 6 11 11 -125 104 -218 149
-49 24 -115 49 -145 56 -30 7 -57 16 -60 19 -3 3 -16 6 -30 7 -14 1 -52 4 -85
8 -81 9 -157 6 -265 -10 -30 -5 -58 -8 -62 -7 -5 1 -8 -2 -8 -6 0 -4 -9 -8
-20 -9 -39 -3 -237 -89 -260 -113 -3 -3 -30 -24 -60 -46 -55 -42 -103 -86
-151 -140 -37 -43 -105 -146 -113 -171 -4 -13 -11 -23 -16 -23 -5 0 -12 -16
-16 -35 -3 -19 -10 -35 -15 -35 -5 0 -8 -3 -7 -7 1 -5 -5 -30 -15 -58 -9 -27
-19 -65 -22 -84 -3 -19 -8 -37 -10 -41 -6 -9 -17 -166 -15 -205 1 -16 2 -45 3
-62 1 -18 -1 -33 -5 -33 -4 0 -4 -10 0 -22 4 -13 6 -36 5 -53 -4 -35 -3 -75 0
-127 1 -21 -1 -38 -5 -38 -4 0 -4 -10 0 -22 4 -13 6 -36 5 -53 -4 -35 -3 -75
0 -127 1 -21 -1 -38 -5 -38 -4 0 -4 -10 0 -22 4 -13 6 -36 5 -53 -4 -35 -3
-75 0 -127 1 -21 -1 -38 -5 -38 -4 0 -4 -10 0 -22 4 -13 6 -36 5 -53 -4 -35
-3 -75 0 -127 1 -21 -1 -38 -5 -38 -4 0 -4 -10 0 -22 4 -13 6 -36 5 -53 -4
-35 -3 -75 0 -127 1 -21 -1 -38 -5 -38 -4 0 -4 -10 0 -22 4 -13 6 -36 5 -53
-4 -35 -3 -75 0 -127 1 -21 -1 -38 -6 -38 -4 0 -5 -5 -2 -10 9 -14 10 -93 3
-106 -4 -5 -3 -15 0 -22 4 -6 6 -30 4 -54 -4 -49 -4 -47 -1 -108 2 -25 0 -50
-3 -56 -4 -5 -3 -15 0 -22 4 -6 6 -30 4 -54 -4 -49 -4 -47 -1 -108 2 -25 0
-50 -3 -56 -4 -5 -3 -15 0 -22 4 -6 6 -30 4 -54 -2 -24 -3 -47 -3 -53 0 -5 1
-30 2 -55 0 -25 0 -49 -1 -55 -1 -5 -1 -14 0 -20 5 -22 2 -176 -3 -182 -4 -3
-2 -12 4 -20 10 -11 -7 -13 -97 -13 -60 -1 -118 -1 -129 -1 -44 0 -951 0 -965
0 -8 0 -57 0 -107 1 l-93 0 -1 1363 c0 1203 -2 1432 -8 1432 -1 0 -4 18 -6 41
-1 22 -13 74 -25 115 -75 251 -240 454 -470 576 -77 41 -193 84 -243 89 -16 2
-33 7 -39 10 -5 3 -69 8 -141 9 -100 3 -153 -1 -217 -14z"/>
</g>
</svg>
